<svg xmlns="http://www.w3.org/2000/svg" viewBox="0 0 71.67 75.07"><defs><style>.cls-1{fill:#3372b9;}</style></defs><title>fusion-logo</title><g id="Layer_2" data-name="Layer 2"><g id="Layer_1-2" data-name="Layer 1"><path class="cls-1" d="M63.59,59.43l-1.83-6-.32-1h0c-.25-.72-.49-1.38-.7-2a146.06,146.06,0,0,0-9.64-21,3.69,3.69,0,1,0-2.54,1l.18,0c3.4,6.9,7.16,17.92,9.31,26.35a21.62,21.62,0,0,1-13.89,4.05l-.44,0-.93-.09a21.59,21.59,0,0,1-11.31-4.88L24,56A27.2,27.2,0,0,0,41.51,66.14c4.55,5,9.94,8.24,14.81,8.84a9.9,9.9,0,0,0,7.44-1.81c2.25-1.75,1.49-7.46.06-13Zm-3.85,8A2.34,2.34,0,0,1,59.07,69a3,3,0,0,1-2.62.5l-.33-.07a16.92,16.92,0,0,1-7-3.28,27.07,27.07,0,0,0,10.21-3.59A18.17,18.17,0,0,1,59.74,67.47Z"/><path class="cls-1" d="M67.67,23.55c1.22-4.62.29-12.31-.13-15.19C66.44-1.84,61-.83,56.84,1.68a17.44,17.44,0,0,0-5,3.9l-.2.21h0a53.93,53.93,0,0,0-4,4.9,2.69,2.69,0,0,0-.2.27l-3.23,4.7L44,16c-5.33,8.33-10.05,18.18-11.5,24,0,0,0,.12-.31,1a2.45,2.45,0,0,0-.39,0,3.7,3.7,0,1,0,3.7,3.7,3.64,3.64,0,0,0-1.22-2.73c.19-.61.33-1.05.41-1.29,0-.06,0-.07,0-.09,1.45-5.81,8.39-16.41,14.49-24a21.68,21.68,0,0,1,12.88,8.54,2.48,2.48,0,0,1,.19.26A21.65,21.65,0,0,1,66.13,39a18,18,0,0,1-2.9,9.71L65.5,55a27.22,27.22,0,0,0,2.17-31.44ZM53.14,11.92a22.81,22.81,0,0,1,4.4-4A2.4,2.4,0,0,1,59,7.5a2.83,2.83,0,0,1,2.19,1.78l.15.3a17.59,17.59,0,0,1,1.73,8.29A27.34,27.34,0,0,0,53.14,11.92Z"/><path class="cls-1" d="M25.78,52.81c3.25.38,6.59.66,9.85.85,4.15.23,7.91.28,11.09.17a3.72,3.72,0,1,0,.3-2.58l-1.91-.09A161.51,161.51,0,0,1,22.67,48a21.73,21.73,0,0,1-1.11-15.5q.24-.77.51-1.5A21.8,21.8,0,0,1,38.71,17.33l3.87-6.61c-10.3.39-20.53,7.39-24.79,16.33a32,32,0,0,0-8.53,4.66,22.67,22.67,0,0,0-3.71,2.84c-.28.22-.53.43-.74.61C-3.14,41.32.23,45.34,4.45,47.63c2.88,1.63,7.62,3,13.18,4l.78.12,6.22.94ZM8.44,43.59a2.31,2.31,0,0,1-1.09-1.42,3,3,0,0,1,.79-2.44l.21-.26a17.82,17.82,0,0,1,7.14-5.16,28.22,28.22,0,0,0-.32,2.93,27,27,0,0,0,1.06,9.2C12.49,45.45,9.64,44.45,8.44,43.59Z"/></g></g></svg>