<?xml version="1.0" encoding="utf-8"?>
<!-- Generator: Adobe Illustrator 23.0.3, SVG Export Plug-In . SVG Version: 6.00 Build 0)  -->
<svg version="1.1" id="Layer_1" xmlns="http://www.w3.org/2000/svg" xmlns:xlink="http://www.w3.org/1999/xlink" x="0px" y="0px"
	 viewBox="0 0 71.7 75.1" style="enable-background:new 0 0 71.7 75.1;" xml:space="preserve">
<style type="text/css">
	.st0{fill:#1976D2;}
</style>
<title>fusion-logo</title>
<g>
	<g id="Layer_1-2">
		<path class="st0" d="M63.6,59.4l-1.8-6l-0.3-1l0,0c-0.2-0.7-0.5-1.4-0.7-2c-2.7-7.2-5.9-14.3-9.6-21c1.5-1.4,1.6-3.7,0.2-5.2
			s-3.7-1.6-5.2-0.2c-1.5,1.4-1.6,3.7-0.2,5.2c0.7,0.7,1.7,1.2,2.7,1.2h0.2c3.4,6.9,7.2,17.9,9.3,26.3c-4,2.9-8.9,4.3-13.9,4h-0.4
			l-0.9-0.1c-4.2-0.5-8.1-2.2-11.3-4.9L24,56c4.3,5.5,10.6,9.1,17.5,10.1c4.5,5,9.9,8.2,14.8,8.8c2.6,0.4,5.3-0.2,7.4-1.8
			c2.2-1.8,1.5-7.5,0.1-13L63.6,59.4z M59.7,67.4c0,0.6-0.3,1.1-0.7,1.6c-0.7,0.6-1.7,0.8-2.6,0.5l-0.3-0.1c-2.6-0.5-5-1.7-7-3.3
			c3.6-0.5,7.1-1.7,10.2-3.6C59.7,64.2,59.8,65.8,59.7,67.4L59.7,67.4z"/>
		<path class="st0" d="M67.7,23.5c1.2-4.6,0.3-12.3-0.1-15.2C66.4-1.8,61-0.8,56.8,1.7c-1.9,1-3.6,2.3-5,3.9l-0.2,0.2l0,0
			c-1.4,1.6-2.8,3.2-4,4.9c-0.1,0.1-0.1,0.2-0.2,0.3l-3.2,4.7L44,16c-5.3,8.3-10,18.2-11.5,24c0,0,0,0.1-0.3,1c-0.1,0-0.3,0-0.4,0
			c-2,0-3.7,1.7-3.7,3.7s1.7,3.7,3.7,3.7s3.7-1.7,3.7-3.7c0-1-0.4-2-1.2-2.7c0.2-0.6,0.3-1,0.4-1.3c0-0.1,0-0.1,0-0.1
			c1.5-5.8,8.4-16.4,14.5-24c5.2,1.2,9.8,4.2,12.9,8.5c0.1,0.1,0.1,0.2,0.2,0.3c2.8,4,4.1,8.8,3.9,13.6c0,3.4-1,6.8-2.9,9.7l2.3,6.3
			C72.8,46,73.7,33.4,67.7,23.5L67.7,23.5z M53.1,11.9c1.3-1.5,2.8-2.9,4.4-4C58,7.6,58.5,7.5,59,7.5c1,0.2,1.8,0.8,2.2,1.8l0.2,0.3
			c1.2,2.6,1.8,5.4,1.7,8.3C60.2,15.2,56.8,13.2,53.1,11.9z"/>
		<path class="st0" d="M25.8,52.8c3.2,0.4,6.6,0.7,9.9,0.8c4.2,0.2,7.9,0.3,11.1,0.2c0.5,2,2.5,3.2,4.5,2.7c2-0.5,3.2-2.5,2.7-4.5
			c-0.5-2-2.5-3.2-4.5-2.7c-1,0.3-1.9,1-2.4,1.9l-1.9-0.1c-7.5-0.5-15-1.6-22.4-3.2c-2.3-4.9-2.7-10.4-1.1-15.5
			c0.2-0.5,0.3-1,0.5-1.5c2.8-7.2,9.1-12.4,16.6-13.7l3.9-6.6C32.3,11.1,22,18.1,17.8,27c-3.1,1.1-5.9,2.7-8.5,4.7
			c-1.3,0.8-2.6,1.8-3.7,2.8C5.3,34.8,5,35,4.8,35.2c-7.9,6.2-4.6,10.2-0.4,12.5c2.9,1.6,7.6,3,13.2,4l0.8,0.1l6.2,0.9L25.8,52.8z
			 M8.4,43.6c-0.5-0.3-0.9-0.8-1.1-1.4c-0.1-0.9,0.2-1.8,0.8-2.4l0.2-0.3c1.9-2.3,4.4-4.1,7.1-5.2c-0.2,1-0.3,1.9-0.3,2.9
			c-0.2,3.1,0.2,6.2,1.1,9.2C12.5,45.5,9.6,44.5,8.4,43.6z"/>
	</g>
</g>
</svg>
